<?xml version="1.0" encoding="UTF-8" standalone="no"?>
<!DOCTYPE svg PUBLIC "-//W3C//DTD SVG 1.1//EN"
 "http://www.w3.org/Graphics/SVG/1.1/DTD/svg11.dtd">
<!-- Generated by graphviz version 2.43.0 (0)
 -->
<!-- Title: dependency&#45;cruiser output Pages: 1 -->
<svg width="171pt" height="75pt"
 viewBox="0.00 0.00 170.52 75.00" xmlns="http://www.w3.org/2000/svg" xmlns:xlink="http://www.w3.org/1999/xlink">
<g id="graph0" class="graph" transform="scale(1 1) rotate(0) translate(4 71)">
<title>dependency&#45;cruiser output</title>
<polygon fill="white" stroke="transparent" points="-4,4 -4,-71 166.52,-71 166.52,4 -4,4"/>
<g id="clust1" class="cluster">
<title>cluster_src</title>
<path fill="#ffffff" stroke="black" stroke-width="2" d="M20,-8C20,-8 142.52,-8 142.52,-8 148.52,-8 154.52,-14 154.52,-20 154.52,-20 154.52,-47 154.52,-47 154.52,-53 148.52,-59 142.52,-59 142.52,-59 20,-59 20,-59 14,-59 8,-53 8,-47 8,-47 8,-20 8,-20 8,-14 14,-8 20,-8"/>
<text text-anchor="middle" x="81.26" y="-47.8" font-family="Helvetica,sans-Serif" font-weight="bold" font-size="9.00">src</text>
</g>
<!-- src/index.js -->
<g id="node1" class="node">
<title>src/index.js</title>
<g id="a_node1"><a xlink:href="src/index.js" xlink:title="index.js">
<path fill="#ffffcc" stroke="black" d="M140.86,-33.5C140.86,-33.5 98.19,-33.5 98.19,-33.5 95.36,-33.5 92.52,-30.67 92.52,-27.83 92.52,-27.83 92.52,-22.17 92.52,-22.17 92.52,-19.33 95.36,-16.5 98.19,-16.5 98.19,-16.5 140.86,-16.5 140.86,-16.5 143.69,-16.5 146.52,-19.33 146.52,-22.17 146.52,-22.17 146.52,-27.83 146.52,-27.83 146.52,-30.67 143.69,-33.5 140.86,-33.5"/>
<text text-anchor="middle" x="119.52" y="-22.3" font-family="Helvetica,sans-Serif" font-size="9.00">index.js</text>
</a>
</g>
</g>
<!-- src/index.test.js -->
<g id="node2" class="node">
<title>src/index.test.js</title>
<g id="a_node2"><a xlink:href="src/index.test.js" xlink:title="index.test.js">
<path fill="#ffffcc" stroke="black" d="M73.62,-33.5C73.62,-33.5 21.9,-33.5 21.9,-33.5 19.07,-33.5 16.24,-30.67 16.24,-27.83 16.24,-27.83 16.24,-22.17 16.24,-22.17 16.24,-19.33 19.07,-16.5 21.9,-16.5 21.9,-16.5 73.62,-16.5 73.62,-16.5 76.45,-16.5 79.29,-19.33 79.29,-22.17 79.29,-22.17 79.29,-27.83 79.29,-27.83 79.29,-30.67 76.45,-33.5 73.62,-33.5"/>
<text text-anchor="middle" x="47.76" y="-22.3" font-family="Helvetica,sans-Serif" font-size="9.00">index.test.js</text>
</a>
</g>
</g>
<!-- src/index.test.js&#45;&gt;src/index.js -->
<g id="edge1" class="edge">
<title>src/index.test.js&#45;&gt;src/index.js</title>
<path fill="none" stroke="#000000" stroke-width="2" stroke-opacity="0.200000" d="M79.56,-25C81.68,-25 83.82,-25 85.94,-25"/>
<polygon fill="#000000" fill-opacity="0.200000" stroke="#000000" stroke-width="2" stroke-opacity="0.200000" points="86.25,-27.1 92.25,-25 86.25,-22.9 86.25,-27.1"/>
</g>
</g>
</svg>
